<?xml version="1.0" encoding="utf-8"?>
<!-- Uploaded to: SVG Repo, www.svgrepo.com, Generator: SVG Repo Mixer Tools -->
<svg fill="#ffffff" version="1.1" id="Layer_1" xmlns="http://www.w3.org/2000/svg" xmlns:xlink="http://www.w3.org/1999/xlink" 
	 width="800px" height="800px" viewBox="0 0 175 256" enable-background="new 0 0 175 256" xml:space="preserve">
<path d="M120.664,97.062V75.111h-13.21v16.946c-4.489-1.279-9.126-2.204-13.89-2.705V75.111h-18.6v14.395
	c-4.746,0.57-9.371,1.537-13.836,2.88V75.111H50.511v21.299c-1.96,0.901-3.88,1.871-5.754,2.917V84.731h-7.311v19.204
	c-21.224,14.954-35.13,39.632-35.13,67.511C2.316,216.966,39.35,254,84.87,254s82.555-37.034,82.555-82.555
	C167.425,138.741,148.309,110.419,120.664,97.062z M62.175,222.637c-2.423-0.21-1.264-12.855-2.529-16.227
	c-1.265-3.373-3.687-3.159-3.687-5.478c0,0,3.583-9.128,5.163-8.041c1.581,1.087,4.352,7.699,4.774,11.386
	C66.316,207.965,64.598,222.847,62.175,222.637z M103.957,154.457c-1.623,1.702-3.585,3.769-4.658,4.933
	c-0.778,0.843-1.207,1.945-1.207,3.093v4.534c0,0.513-0.239,0.997-0.647,1.309l-1.739,1.329c-0.719,0.55-1.756,0.354-2.227-0.419
	L86.763,158.2c-1.037-1.703-1.771-3.57-2.163-5.525c-0.684-3.41-1.91-8.803-3.036-9.966c-3.018-3.119-12.487-8.061-15.648-8.693
	c-3.161-0.632-4.895,0.284-5.057,1.423c-0.317,2.213,8.535,4.056,8.693,6.955c0.171,3.133-12.368,14.817-15.331,13.751
	c-3.951-1.423-4.056-10.958-5.479-13.066c-1.226-1.818-4.016-2.91-5.427-1.633c-1.66,1.501,4.335,17.674,6.401,18.65
	c2.746,1.297,6.559-2.964,8.456-1.541c1.896,1.423-0.632,7.864-6.164,13.711c-5.532,5.848-5.058,9.325-4.583,12.644
	c0.474,3.319,3.736,17.228,3.636,21.653c-0.137,6.013-4.583,11.064-4.583,11.064v15.433c-20.539-12.845-34.238-35.654-34.238-61.614
	c0-13.877,3.917-26.854,10.696-37.893c1.176,1.48,3.203,3.588,7.297,5.955c6.763,3.909,14.387,0.303,16.255-7.755
	c0.527-2.273-11.23-1.488-12.347-8.189c-0.238-1.43-0.778-2.2-1.504-2.509c13.218-13.696,31.741-22.24,52.234-22.24
	c23.519,0,44.452,11.245,57.735,28.631c0.052,1.664-0.259,3.255-1.455,4.202c-3.793,3.003-4.425,5.532-3.161,8.535
	c1.264,3.003,1.896,6.48-1.738,9.642c-2.272,1.976-5.47,3.704-7.549,4.723c-1.176,0.576-1.847,1.855-1.637,3.148
	c0.236,1.464,0.612,3.311-0.812,5.019c-0.942,1.13-2.302,2.178-3.344,2.895c-0.841,0.58-1.98,0.456-2.666-0.302
	c-1.908-2.106-7.473-7.606-10.871-10.942C107.856,152.879,105.422,152.92,103.957,154.457z M131.885,175.745l-1.445,2.91
	c-0.768,1.546-2.531,2.322-4.19,1.844c-1.19-0.343-2.117-1.278-2.451-2.47l-0.155-0.553c-0.365-1.302,0.037-2.698,1.037-3.607
	l4.729-4.299c0.756-0.688,1.974-0.283,2.167,0.72l0.615,3.188C132.342,174.248,132.234,175.044,131.885,175.745z M145.943,208.97
	c-1.159,2.634-3.372,6.743-8.535,10.958c-4.45,3.633-10.115,7.482-11.907,6.533c-1.791-0.949-0.21-6.323-3.161-7.482
	c-2.948-1.16-10.851,6.427-13.274,5.163c-2.467-1.287,0-9.483,0-13.593c0-4.11,1.475-8.588,4.636-9.799
	c4.143-1.588,6.849-1.369,11.169-5.796c4.32-4.425,9.167-9.8,10.748-8.956c1.581,0.843-0.527,8.851,0.527,9.799
	c1.054,0.949,4.847,0.422,6.111-1.791c1.264-2.213,1.791-7.902,4.004-6.638c2.213,1.264,0.737,5.796,0.737,9.167
	S147.102,206.335,145.943,208.97z M150.108,183.039c-2.832-3.026-3.759-5.233-0.603-7.743s6.874,3.414,7.058,7.962
	c0.056,1.368,0.306,4.072-1.161,5.352C153.936,189.89,152.941,186.066,150.108,183.039z M93.398,56.162v13h-5.954v-13
	c0-6.279-5.108-11.387-11.387-11.387H74.64c-0.001,0.083-0.001,0.166-0.005,0.247c-0.076,1.594-1.392,2.835-2.971,2.835
	c-0.048,0-0.096-0.001-0.144-0.003c-1.642-0.078-2.91-1.473-2.832-3.115l0-0.108c0-3.874-3.151-7.025-7.025-7.025
	c-1.56,0-3.037,0.502-4.271,1.452c-1.304,1.002-3.172,0.76-4.174-0.544c-1.003-1.303-0.759-3.172,0.544-4.174
	c2.285-1.758,5.017-2.688,7.902-2.688c5.066,0,9.452,2.925,11.589,7.169h2.804C85.618,38.821,93.398,46.6,93.398,56.162z
	 M171.373,59.13c-0.486,1.053-1.542,1.727-2.702,1.727h-15.104c-0.765,5.56-5.063,10.159-10.861,11.104
	c-4.355,0.712-8.738-0.799-11.732-4.032c-1.117-1.206-1.045-3.09,0.162-4.206c1.206-1.118,3.09-1.044,4.206,0.162
	c1.633,1.764,4.031,2.584,6.407,2.2c3.772-0.615,6.38-4.067,5.936-7.859c-0.099-0.844,0.168-1.69,0.733-2.325
	s1.374-0.998,2.224-0.998h15.904c0.332-1.542,0.224-3.164-0.335-4.641c-0.647-1.712-1.838-3.022-3.353-3.688
	c-1.433-0.623-2.991-0.757-4.489-0.382c-0.831,0.208-1.71,0.047-2.416-0.44c-0.704-0.487-1.165-1.254-1.264-2.106
	c-0.508-4.388-3.616-8.255-7.735-9.623c-2.849-0.953-5.89-0.739-8.57,0.6c-2.686,1.341-4.688,3.648-5.638,6.497
	c-0.247,0.733-0.441,1.743-0.535,2.781c-0.139,1.533-1.424,2.708-2.964,2.708h-4.276c-6.275,0-11.381,5.11-11.381,11.391v11.163
	h-5.954V57.999c0-9.564,7.776-17.345,17.334-17.345h1.735c0.107-0.469,0.236-0.953,0.396-1.426c0.863-2.59,2.31-4.88,4.198-6.75
	c-1.49-2.385-3.695-4.219-6.374-5.232c-3.238-1.224-6.76-1.116-9.914,0.306c-2.62,1.18-4.722,3.146-6.079,5.685
	c-0.54,1.009-1.618,1.61-2.751,1.571c-1.142-0.048-2.156-0.747-2.609-1.797c-0.433-0.977-4.578-9.539-14.856-5.984
	c-2.107,0.98-3.803,2.547-4.914,4.54c-0.612,1.1-1.853,1.696-3.094,1.486c-1.242-0.208-2.218-1.176-2.438-2.416
	c-1.237-6.975-7.623-7.748-8.347-7.813c-1.404-0.126-2.549-1.221-2.712-2.621c-0.621-5.309-4.294-9.832-9.358-11.523
	C50.5,6.229,42.992,9.998,40.395,17.444c-0.253,0.727-0.55,2.48-0.68,3.492c-0.153,1.196-1.012,2.182-2.175,2.497
	c-3.807,1.03-6.465,4.509-6.465,8.461c0,4.834,3.935,8.767,8.771,8.767c0.79,0,1.554,0.314,2.112,0.872
	c0.558,0.559,0.878,1.316,0.878,2.106l-0.001,3.676c0,3.933,3.201,7.134,7.135,7.134h17.007c7.724,0,14.008,6.284,14.008,14.009
	v0.704h-5.954v-0.704c0-4.442-3.613-8.055-8.055-8.055H49.972c-7.217,0-13.089-5.872-13.089-13.089l0-1.001
	c-5.998-1.232-10.66-6.116-11.584-12.209c-4.418-1.14-9.163,0.268-12.23,3.673c-4.544,5.046-4.137,12.847,0.907,17.392
	c1.202,1.083,2.572,1.904,4.074,2.439c0.802,0.286,1.444,0.902,1.762,1.692c0.318,0.791,0.282,1.679-0.098,2.441
	c-1.058,2.118-0.983,4.606,0.201,6.656c0.939,1.626,2.455,2.789,4.269,3.275c1.814,0.487,3.708,0.236,5.334-0.702
	c1.894-1.094,3.15-2.966,3.447-5.136c0.153-1.122,0.929-2.059,2.002-2.419c0.305-0.102,0.702-0.18,1.023-0.18h23.392
	c1.644,0,2.977,1.333,2.977,2.977c0,1.553-1.194,2.814-2.712,2.95l-21.394,0.027c-1.013,2.907-3.027,5.36-5.759,6.938
	c-2,1.155-4.22,1.745-6.47,1.745c-1.128,0-2.263-0.148-3.382-0.448c-3.35-0.898-6.15-3.046-7.884-6.049
	c-1.662-2.878-2.141-6.225-1.416-9.383c-1.197-0.665-2.318-1.468-3.352-2.4c-7.482-6.74-8.086-18.313-1.346-25.798
	c4.283-4.758,10.779-6.882,16.988-5.708c1.166-4.338,4.27-7.97,8.457-9.746c0.166-0.94,0.398-2.041,0.683-2.857
	C38.411,5.052,49.376-0.42,59.739,3.032c6.53,2.18,11.442,7.649,12.999,14.265c3.094,0.811,7.022,2.858,9.448,6.94
	c1.239-1.083,2.646-1.988,4.191-2.687c0.077-0.035,0.155-0.066,0.234-0.094c9.577-3.39,16.221,0.655,19.853,5.053
	c1.701-1.844,3.76-3.329,6.104-4.386c4.604-2.075,9.741-2.233,14.465-0.446c3.825,1.446,6.989,4.041,9.162,7.413
	c3.99-1.848,8.454-2.117,12.643-0.715c5.324,1.768,9.539,6.266,11.159,11.653c1.791-0.031,3.557,0.358,5.245,1.09
	c3.004,1.322,5.321,3.819,6.538,7.038C173.114,51.685,172.966,55.685,171.373,59.13z"/>
</svg>